<mxfile host="65bd71144e">
    <diagram id="cOPPHnaynSb4PC9Ppda5" name="ページ1">
        <mxGraphModel dx="1403" dy="1644" grid="1" gridSize="10" guides="1" tooltips="1" connect="1" arrows="1" fold="1" page="1" pageScale="1" pageWidth="827" pageHeight="1169" background="none" math="0" shadow="0">
            <root>
                <mxCell id="0"/>
                <mxCell id="1" parent="0"/>
                <mxCell id="12" value="「回答」をクリック&lt;br&gt;(正誤判定画面へ)" style="text;html=1;strokeColor=none;fillColor=none;align=center;verticalAlign=middle;whiteSpace=wrap;rounded=0;" parent="1" vertex="1">
                    <mxGeometry x="-388" y="246" width="116" height="30" as="geometry"/>
                </mxCell>
                <mxCell id="38" value="JAVAクイズ (○問目/10問)&lt;br&gt;&lt;br&gt;　NNN. XXXXXXXXXXXXXXXX&lt;br&gt;&amp;nbsp; &amp;nbsp; &amp;nbsp; &amp;nbsp; &amp;nbsp; &amp;nbsp; &amp;nbsp;XXXXXXXXXXXXXXXX&lt;br&gt;&amp;nbsp; &amp;nbsp; &amp;nbsp; &amp;nbsp; &amp;nbsp; &amp;nbsp; &amp;nbsp;(Nつ選択)&lt;br&gt;&lt;br&gt;&amp;nbsp; &amp;nbsp; &amp;nbsp; &amp;nbsp; &amp;nbsp; &amp;nbsp; &amp;nbsp;a. XXXXXXXXXX&amp;nbsp; ○ ○✕&lt;br&gt;&amp;nbsp; &amp;nbsp; &amp;nbsp; &amp;nbsp; &amp;nbsp; &amp;nbsp; &amp;nbsp;b. XXXXXXXXXX&amp;nbsp; ○ ○✕&lt;br&gt;&amp;nbsp; &amp;nbsp; &amp;nbsp; &amp;nbsp; &amp;nbsp; &amp;nbsp; &amp;nbsp;c. XXXXXXXXXX&amp;nbsp; ○ ○✕&lt;br&gt;&amp;nbsp; &amp;nbsp; &amp;nbsp; &amp;nbsp; &amp;nbsp; &amp;nbsp; &amp;nbsp;d. XXXXXXXXXX&amp;nbsp; ○ ○✕&lt;br&gt;&amp;nbsp; &amp;nbsp; &amp;nbsp; &amp;nbsp; &amp;nbsp; &amp;nbsp; &amp;nbsp;e. XXXXXXXXXX&amp;nbsp; ○ ○✕" style="rounded=0;whiteSpace=wrap;html=1;align=left;" parent="1" vertex="1">
                    <mxGeometry x="-297" y="328" width="180" height="205" as="geometry"/>
                </mxCell>
                <mxCell id="2" value="ログイン成功&lt;br&gt;　ようこそ{ユーザーID}さん&lt;br&gt;　&lt;u&gt;JAVAクイズ&lt;/u&gt;&lt;br&gt;　&lt;u&gt;トップへ&lt;/u&gt;" style="rounded=0;whiteSpace=wrap;html=1;align=left;" parent="1" vertex="1">
                    <mxGeometry x="-781" y="36" width="180" height="130" as="geometry"/>
                </mxCell>
                <mxCell id="3" value="JAVAクイズ (○問目/10問)&lt;br&gt;&lt;br&gt;　NNN. XXXXXXXXXXXXXXXX&lt;br&gt;&amp;nbsp; &amp;nbsp; &amp;nbsp; &amp;nbsp; &amp;nbsp; &amp;nbsp; &amp;nbsp;XXXXXXXXXXXXXXXX&lt;br&gt;&amp;nbsp; &amp;nbsp; &amp;nbsp; &amp;nbsp; &amp;nbsp; &amp;nbsp; &amp;nbsp;(Nつ選択)&lt;br&gt;&lt;br&gt;&amp;nbsp; &amp;nbsp; &amp;nbsp; &amp;nbsp; &amp;nbsp; &amp;nbsp; &amp;nbsp;a. XXXXXXXXXX&amp;nbsp; ○&lt;br&gt;&amp;nbsp; &amp;nbsp; &amp;nbsp; &amp;nbsp; &amp;nbsp; &amp;nbsp; &amp;nbsp;b. XXXXXXXXXX&amp;nbsp; ○&lt;br&gt;&amp;nbsp; &amp;nbsp; &amp;nbsp; &amp;nbsp; &amp;nbsp; &amp;nbsp; &amp;nbsp;c. XXXXXXXXXX&amp;nbsp; ○&lt;br&gt;&amp;nbsp; &amp;nbsp; &amp;nbsp; &amp;nbsp; &amp;nbsp; &amp;nbsp; &amp;nbsp;d. XXXXXXXXXX&amp;nbsp; ○&lt;br&gt;&amp;nbsp; &amp;nbsp; &amp;nbsp; &amp;nbsp; &amp;nbsp; &amp;nbsp; &amp;nbsp;e. XXXXXXXXXX&amp;nbsp; ○" style="rounded=0;whiteSpace=wrap;html=1;align=left;" parent="1" vertex="1">
                    <mxGeometry x="-781" y="328" width="180" height="205" as="geometry"/>
                </mxCell>
                <mxCell id="6" value="回答" style="text;html=1;strokeColor=default;fillColor=none;align=center;verticalAlign=middle;whiteSpace=wrap;rounded=0;" parent="1" vertex="1">
                    <mxGeometry x="-657" y="509" width="48" height="21" as="geometry"/>
                </mxCell>
                <mxCell id="7" value="JAVAクイズ&amp;nbsp; &amp;nbsp; NNN点&lt;br&gt;&lt;br&gt;&amp;nbsp; &amp;nbsp; &amp;nbsp; &amp;nbsp; XXXXXXXXXXXXXX&lt;br&gt;&lt;br&gt;&amp;nbsp; &amp;nbsp; &amp;nbsp;CCYY/MM/DD&amp;nbsp; &amp;nbsp; NNN点&lt;br&gt;&amp;nbsp; &amp;nbsp; &amp;nbsp;CCYY/MM/DD&amp;nbsp; &amp;nbsp; NNN点&lt;br&gt;&lt;br&gt;" style="rounded=0;whiteSpace=wrap;html=1;align=left;" parent="1" vertex="1">
                    <mxGeometry x="-297" y="35" width="180" height="130" as="geometry"/>
                </mxCell>
                <mxCell id="14" value="ログイン成功画面" style="text;html=1;strokeColor=none;fillColor=none;align=center;verticalAlign=middle;whiteSpace=wrap;rounded=0;" parent="1" vertex="1">
                    <mxGeometry x="-771" y="13" width="160" height="25" as="geometry"/>
                </mxCell>
                <mxCell id="15" value="JAVAクイズ出題画面" style="text;html=1;strokeColor=none;fillColor=none;align=center;verticalAlign=middle;whiteSpace=wrap;rounded=0;" parent="1" vertex="1">
                    <mxGeometry x="-685" y="529" width="160" height="30" as="geometry"/>
                </mxCell>
                <mxCell id="16" value="JAVAクイズ成績画面" style="text;html=1;strokeColor=none;fillColor=none;align=center;verticalAlign=middle;whiteSpace=wrap;rounded=0;" parent="1" vertex="1">
                    <mxGeometry x="-283" y="10" width="160" height="30" as="geometry"/>
                </mxCell>
                <mxCell id="18" value="" style="endArrow=classic;html=1;entryX=0;entryY=0.5;entryDx=0;entryDy=0;exitX=0.25;exitY=1;exitDx=0;exitDy=0;" parent="1" source="3" target="2" edge="1">
                    <mxGeometry width="50" height="50" relative="1" as="geometry">
                        <mxPoint x="-661" y="490" as="sourcePoint"/>
                        <mxPoint x="-637" y="369" as="targetPoint"/>
                        <Array as="points">
                            <mxPoint x="-736" y="550"/>
                            <mxPoint x="-800" y="550"/>
                            <mxPoint x="-800" y="101"/>
                        </Array>
                    </mxGeometry>
                </mxCell>
                <mxCell id="21" value="&lt;u&gt;中止&lt;/u&gt;" style="text;html=1;strokeColor=none;fillColor=none;align=center;verticalAlign=middle;whiteSpace=wrap;rounded=0;" parent="1" vertex="1">
                    <mxGeometry x="-697" y="509" width="48" height="21" as="geometry"/>
                </mxCell>
                <mxCell id="27" value="&lt;u&gt;中止&lt;/u&gt;" style="text;html=1;strokeColor=none;fillColor=none;align=center;verticalAlign=middle;whiteSpace=wrap;rounded=0;" parent="1" vertex="1">
                    <mxGeometry x="-212" y="509" width="48" height="21" as="geometry"/>
                </mxCell>
                <mxCell id="28" value="次へ" style="text;html=1;strokeColor=default;fillColor=none;align=center;verticalAlign=middle;whiteSpace=wrap;rounded=0;" parent="1" vertex="1">
                    <mxGeometry x="-172" y="509" width="48" height="21" as="geometry"/>
                </mxCell>
                <mxCell id="29" value="JAVAクイズ判定画面" style="text;html=1;strokeColor=none;fillColor=none;align=center;verticalAlign=middle;whiteSpace=wrap;rounded=0;" parent="1" vertex="1">
                    <mxGeometry x="-269" y="529" width="160" height="30" as="geometry"/>
                </mxCell>
                <mxCell id="33" value="「中止」をクリック&lt;br&gt;（「ログイン成功画面」&lt;br&gt;に戻る）" style="text;html=1;strokeColor=none;fillColor=none;align=center;verticalAlign=middle;whiteSpace=wrap;rounded=0;" parent="1" vertex="1">
                    <mxGeometry x="-407" y="533" width="160" height="50" as="geometry"/>
                </mxCell>
                <mxCell id="39" value="&lt;u&gt;クイズ選択&lt;/u&gt;" style="text;html=1;strokeColor=none;fillColor=none;align=center;verticalAlign=middle;whiteSpace=wrap;rounded=0;" parent="1" vertex="1">
                    <mxGeometry x="-251" y="140" width="62" height="21" as="geometry"/>
                </mxCell>
                <mxCell id="40" value="次の10問" style="text;html=1;strokeColor=default;fillColor=none;align=center;verticalAlign=middle;whiteSpace=wrap;rounded=0;" parent="1" vertex="1">
                    <mxGeometry x="-186" y="140" width="62" height="21" as="geometry"/>
                </mxCell>
                <mxCell id="13" value="" style="endArrow=classic;html=1;entryX=0.5;entryY=1;entryDx=0;entryDy=0;exitX=1.006;exitY=0.927;exitDx=0;exitDy=0;exitPerimeter=0;" parent="1" source="3" target="56" edge="1">
                    <mxGeometry width="50" height="50" relative="1" as="geometry">
                        <mxPoint x="-451" y="437" as="sourcePoint"/>
                        <mxPoint x="-296" y="430.5" as="targetPoint"/>
                    </mxGeometry>
                </mxCell>
                <mxCell id="43" value="「クイズ選択」をクリック&lt;br&gt;（クイズ選択画面へ）" style="text;html=1;strokeColor=none;fillColor=none;align=center;verticalAlign=middle;whiteSpace=wrap;rounded=0;" parent="1" vertex="1">
                    <mxGeometry x="-456" y="60" width="160" height="50" as="geometry"/>
                </mxCell>
                <mxCell id="44" value="" style="endArrow=classic;html=1;exitX=1;exitY=0.5;exitDx=0;exitDy=0;" parent="1" edge="1">
                    <mxGeometry width="50" height="50" relative="1" as="geometry">
                        <mxPoint x="-296" y="68" as="sourcePoint"/>
                        <mxPoint x="-376" y="17" as="targetPoint"/>
                        <Array as="points">
                            <mxPoint x="-376" y="68"/>
                        </Array>
                    </mxGeometry>
                </mxCell>
                <mxCell id="45" value="「次へ」をクリック&lt;br&gt;クイズ10問目到達&lt;br&gt;（JAVAクイズ成績画面へ)" style="text;html=1;strokeColor=none;fillColor=none;align=center;verticalAlign=middle;whiteSpace=wrap;rounded=0;" parent="1" vertex="1">
                    <mxGeometry x="-412" y="176" width="152" height="43" as="geometry"/>
                </mxCell>
                <mxCell id="46" value="" style="endArrow=classic;html=1;exitX=0.25;exitY=1;exitDx=0;exitDy=0;entryX=0;entryY=0.25;entryDx=0;entryDy=0;" parent="1" source="38" target="2" edge="1">
                    <mxGeometry width="50" height="50" relative="1" as="geometry">
                        <mxPoint x="-280" y="550" as="sourcePoint"/>
                        <mxPoint x="-820" y="100" as="targetPoint"/>
                        <Array as="points">
                            <mxPoint x="-252" y="580"/>
                            <mxPoint x="-820" y="580"/>
                            <mxPoint x="-820" y="70"/>
                        </Array>
                    </mxGeometry>
                </mxCell>
                <mxCell id="48" value="「次へ」をクリック&lt;br&gt;クイズ10問目未達&lt;br&gt;(JAVAクイズ出題画面へ)" style="text;html=1;strokeColor=none;fillColor=none;align=center;verticalAlign=middle;whiteSpace=wrap;rounded=0;" parent="1" vertex="1">
                    <mxGeometry x="-671" y="200" width="142" height="50" as="geometry"/>
                </mxCell>
                <mxCell id="49" value="&lt;u&gt;終了&lt;/u&gt;" style="text;html=1;strokeColor=none;fillColor=none;align=center;verticalAlign=middle;whiteSpace=wrap;rounded=0;" parent="1" vertex="1">
                    <mxGeometry x="-292" y="140" width="48" height="21" as="geometry"/>
                </mxCell>
                <mxCell id="50" value="" style="endArrow=classic;html=1;exitX=1;exitY=0.25;exitDx=0;exitDy=0;" parent="1" source="7" edge="1">
                    <mxGeometry width="50" height="50" relative="1" as="geometry">
                        <mxPoint x="-366" y="204" as="sourcePoint"/>
                        <mxPoint x="-46" y="4" as="targetPoint"/>
                        <Array as="points">
                            <mxPoint x="-46" y="68"/>
                        </Array>
                    </mxGeometry>
                </mxCell>
                <mxCell id="51" value="「終了」をクリック&lt;br&gt;（アプリを終了）" style="text;html=1;strokeColor=none;fillColor=none;align=center;verticalAlign=middle;whiteSpace=wrap;rounded=0;" parent="1" vertex="1">
                    <mxGeometry x="-143" y="61" width="160" height="50" as="geometry"/>
                </mxCell>
                <mxCell id="52" value="「次の10問」をクリック&lt;br&gt;（クイズ選択が&lt;br&gt;過去に未回答 or&lt;br&gt;過去に間違えた&lt;br&gt;&amp;nbsp;を選択の場合、&lt;br&gt;クイズ選択ロジック&lt;br&gt;を通す&lt;br&gt;&lt;br&gt;エラーの場合は&lt;br&gt;「クイズ選択失敗画面」へ&lt;br&gt;&lt;br&gt;OKの場合は&lt;br&gt;JAVAクイズ出題画面へ" style="text;html=1;strokeColor=none;fillColor=none;align=center;verticalAlign=middle;whiteSpace=wrap;rounded=0;" parent="1" vertex="1">
                    <mxGeometry x="-131" y="126" width="160" height="191" as="geometry"/>
                </mxCell>
                <mxCell id="53" value="" style="endArrow=classic;html=1;exitX=1.006;exitY=0.685;exitDx=0;exitDy=0;exitPerimeter=0;" parent="1" source="7" edge="1">
                    <mxGeometry width="50" height="50" relative="1" as="geometry">
                        <mxPoint x="-336" y="194" as="sourcePoint"/>
                        <mxPoint x="4" y="4" as="targetPoint"/>
                        <Array as="points">
                            <mxPoint x="4" y="124"/>
                        </Array>
                    </mxGeometry>
                </mxCell>
                <mxCell id="55" value="「中止」をクリック&lt;br&gt;（「ログイン成功画面」に戻る）" style="text;html=1;strokeColor=none;fillColor=none;align=center;verticalAlign=middle;whiteSpace=wrap;rounded=0;" parent="1" vertex="1">
                    <mxGeometry x="-821" y="532" width="188" height="40" as="geometry"/>
                </mxCell>
                <mxCell id="56" value="QuizControlServlet" style="rounded=1;whiteSpace=wrap;html=1;" parent="1" vertex="1">
                    <mxGeometry x="-520" y="189" width="120" height="31" as="geometry"/>
                </mxCell>
                <mxCell id="57" value="quizQuestions.jsp" style="rounded=1;whiteSpace=wrap;html=1;" parent="1" vertex="1">
                    <mxGeometry x="-751" y="257" width="120" height="31" as="geometry"/>
                </mxCell>
                <mxCell id="58" value="" style="endArrow=classic;html=1;exitX=0;exitY=0.5;exitDx=0;exitDy=0;entryX=0.5;entryY=0;entryDx=0;entryDy=0;" parent="1" source="56" target="57" edge="1">
                    <mxGeometry width="50" height="50" relative="1" as="geometry">
                        <mxPoint x="-460" y="259" as="sourcePoint"/>
                        <mxPoint x="-369" y="483" as="targetPoint"/>
                    </mxGeometry>
                </mxCell>
                <mxCell id="59" value="フォワード" style="text;html=1;strokeColor=none;fillColor=none;align=center;verticalAlign=middle;whiteSpace=wrap;rounded=0;" parent="1" vertex="1">
                    <mxGeometry x="-458" y="171" width="80" height="20" as="geometry"/>
                </mxCell>
                <mxCell id="60" value="レスポンス" style="text;html=1;strokeColor=none;fillColor=none;align=center;verticalAlign=middle;whiteSpace=wrap;rounded=0;" parent="1" vertex="1">
                    <mxGeometry x="-696" y="298" width="80" height="20" as="geometry"/>
                </mxCell>
                <mxCell id="61" value="" style="endArrow=classic;html=1;exitX=0.5;exitY=1;exitDx=0;exitDy=0;entryX=0.5;entryY=0;entryDx=0;entryDy=0;" parent="1" source="57" target="3" edge="1">
                    <mxGeometry width="50" height="50" relative="1" as="geometry">
                        <mxPoint x="-301" y="367" as="sourcePoint"/>
                        <mxPoint x="-425" y="369" as="targetPoint"/>
                    </mxGeometry>
                </mxCell>
                <mxCell id="62" value="quizResult.jsp" style="rounded=1;whiteSpace=wrap;html=1;" parent="1" vertex="1">
                    <mxGeometry x="-267" y="257" width="120" height="31" as="geometry"/>
                </mxCell>
                <mxCell id="63" value="" style="endArrow=classic;html=1;exitX=1;exitY=0.5;exitDx=0;exitDy=0;entryX=0.5;entryY=0;entryDx=0;entryDy=0;" parent="1" source="56" target="62" edge="1">
                    <mxGeometry width="50" height="50" relative="1" as="geometry">
                        <mxPoint x="-510" y="232.5" as="sourcePoint"/>
                        <mxPoint x="-420" y="310" as="targetPoint"/>
                    </mxGeometry>
                </mxCell>
                <mxCell id="64" value="" style="endArrow=classic;html=1;exitX=0.5;exitY=1;exitDx=0;exitDy=0;entryX=0.5;entryY=0;entryDx=0;entryDy=0;" parent="1" source="62" target="38" edge="1">
                    <mxGeometry width="50" height="50" relative="1" as="geometry">
                        <mxPoint x="-204" y="298" as="sourcePoint"/>
                        <mxPoint x="-204" y="338" as="targetPoint"/>
                    </mxGeometry>
                </mxCell>
                <mxCell id="65" value="gradeResult.jsp" style="rounded=1;whiteSpace=wrap;html=1;" parent="1" vertex="1">
                    <mxGeometry x="-267" y="189" width="120" height="31" as="geometry"/>
                </mxCell>
                <mxCell id="66" value="" style="endArrow=classic;html=1;exitX=1;exitY=0.5;exitDx=0;exitDy=0;entryX=0;entryY=0.5;entryDx=0;entryDy=0;" parent="1" source="56" target="65" edge="1">
                    <mxGeometry width="50" height="50" relative="1" as="geometry">
                        <mxPoint x="-390" y="232.5" as="sourcePoint"/>
                        <mxPoint x="-197" y="267" as="targetPoint"/>
                    </mxGeometry>
                </mxCell>
                <mxCell id="67" value="" style="endArrow=classic;html=1;exitX=0.5;exitY=0;exitDx=0;exitDy=0;entryX=0.5;entryY=1;entryDx=0;entryDy=0;" parent="1" source="65" target="7" edge="1">
                    <mxGeometry width="50" height="50" relative="1" as="geometry">
                        <mxPoint x="-478" y="385" as="sourcePoint"/>
                        <mxPoint x="-478" y="343" as="targetPoint"/>
                    </mxGeometry>
                </mxCell>
                <mxCell id="68" value="レスポンス" style="text;html=1;strokeColor=none;fillColor=none;align=center;verticalAlign=middle;whiteSpace=wrap;rounded=0;" parent="1" vertex="1">
                    <mxGeometry x="-212" y="298" width="80" height="20" as="geometry"/>
                </mxCell>
                <mxCell id="69" value="レスポンス" style="text;html=1;strokeColor=none;fillColor=none;align=center;verticalAlign=middle;whiteSpace=wrap;rounded=0;" parent="1" vertex="1">
                    <mxGeometry x="-211" y="169" width="80" height="20" as="geometry"/>
                </mxCell>
                <mxCell id="70" value="「回答」をクリック" style="text;html=1;strokeColor=none;fillColor=none;align=center;verticalAlign=middle;whiteSpace=wrap;rounded=0;" parent="1" vertex="1">
                    <mxGeometry x="-607" y="486" width="115" height="30" as="geometry"/>
                </mxCell>
                <mxCell id="71" value="" style="endArrow=classic;html=1;exitX=0;exitY=0.922;exitDx=0;exitDy=0;exitPerimeter=0;entryX=0.5;entryY=1;entryDx=0;entryDy=0;" parent="1" source="38" target="56" edge="1">
                    <mxGeometry width="50" height="50" relative="1" as="geometry">
                        <mxPoint x="-370" y="510" as="sourcePoint"/>
                        <mxPoint x="-460" y="240" as="targetPoint"/>
                    </mxGeometry>
                </mxCell>
                <mxCell id="72" value="「次へ」をクリック" style="text;html=1;strokeColor=none;fillColor=none;align=center;verticalAlign=middle;whiteSpace=wrap;rounded=0;" parent="1" vertex="1">
                    <mxGeometry x="-409" y="491" width="112" height="20" as="geometry"/>
                </mxCell>
                <mxCell id="73" value="フォワード" style="text;html=1;strokeColor=none;fillColor=none;align=center;verticalAlign=middle;whiteSpace=wrap;rounded=0;" parent="1" vertex="1">
                    <mxGeometry x="-741" y="231" width="80" height="20" as="geometry"/>
                </mxCell>
                <mxCell id="74" value="フォワード" style="text;html=1;strokeColor=none;fillColor=none;align=center;verticalAlign=middle;whiteSpace=wrap;rounded=0;" parent="1" vertex="1">
                    <mxGeometry x="-235" y="231" width="80" height="20" as="geometry"/>
                </mxCell>
                <mxCell id="75" value="answer_a&lt;br&gt;answer_b&lt;br&gt;answer_c&lt;br&gt;answer_d&lt;br&gt;answer_e&lt;br&gt;answer_f&lt;br&gt;answer_g" style="whiteSpace=wrap;html=1;aspect=fixed;" parent="1" vertex="1">
                    <mxGeometry x="-580" y="264" width="117" height="117" as="geometry"/>
                </mxCell>
                <mxCell id="76" value="リクエストパラメータ" style="text;html=1;strokeColor=none;fillColor=none;align=center;verticalAlign=middle;whiteSpace=wrap;rounded=0;" parent="1" vertex="1">
                    <mxGeometry x="-562" y="386" width="70" height="30" as="geometry"/>
                </mxCell>
                <mxCell id="77" value="judge_a&lt;br&gt;judge_b&lt;br&gt;judge_c&lt;br&gt;judge_d&lt;br&gt;judge_e&lt;br&gt;judge_f&lt;br&gt;judge_g" style="whiteSpace=wrap;html=1;aspect=fixed;" parent="1" vertex="1">
                    <mxGeometry x="-433" y="365" width="117" height="117" as="geometry"/>
                </mxCell>
                <mxCell id="78" value="リクエストパラメータ" style="text;html=1;strokeColor=none;fillColor=none;align=center;verticalAlign=middle;whiteSpace=wrap;rounded=0;" parent="1" vertex="1">
                    <mxGeometry x="-413" y="332" width="70" height="30" as="geometry"/>
                </mxCell>
            </root>
        </mxGraphModel>
    </diagram>
</mxfile>